<svg width="256" height="256" viewBox="0 0 256 256" fill="none" xmlns="http://www.w3.org/2000/svg">
  <!-- Background Circle -->
  <circle cx="128" cy="128" r="120" fill="white" opacity="0.2"/>
  
  <!-- Building Icon (Simple) -->
  <rect x="80" y="80" width="40" height="96" fill="white" rx="4"/>
  <rect x="136" y="80" width="40" height="96" fill="white" rx="4"/>
  
  <!-- Windows -->
  <rect x="88" y="96" width="8" height="8" fill="#6b7a5e"/>
  <rect x="104" y="96" width="8" height="8" fill="#6b7a5e"/>
  <rect x="88" y="112" width="8" height="8" fill="#6b7a5e"/>
  <rect x="104" y="112" width="8" height="8" fill="#6b7a5e"/>
  <rect x="88" y="128" width="8" height="8" fill="#6b7a5e"/>
  <rect x="104" y="128" width="8" height="8" fill="#6b7a5e"/>
  
  <rect x="144" y="96" width="8" height="8" fill="#6b7a5e"/>
  <rect x="160" y="96" width="8" height="8" fill="#6b7a5e"/>
  <rect x="144" y="112" width="8" height="8" fill="#6b7a5e"/>
  <rect x="160" y="112" width="8" height="8" fill="#6b7a5e"/>
  <rect x="144" y="128" width="8" height="8" fill="#6b7a5e"/>
  <rect x="160" y="128" width="8" height="8" fill="#6b7a5e"/>
  
  <!-- Door -->
  <rect x="120" y="144" width="16" height="32" fill="white" rx="2"/>
  
  <!-- Text -->
  <text x="128" y="210" font-family="Arial, sans-serif" font-size="24" font-weight="bold" fill="white" text-anchor="middle">SK</text>
</svg>
